<?xml version="1.0" encoding="UTF-8"?>
<!DOCTYPE svg PUBLIC "-//W3C//DTD SVG 1.1//EN" "http://www.w3.org/Graphics/SVG/1.1/DTD/svg11.dtd">
<!-- Creator: CorelDRAW SE -->
<svg xmlns="http://www.w3.org/2000/svg" xml:space="preserve" width="1200px" height="339px" version="1.1" style="shape-rendering:geometricPrecision; text-rendering:geometricPrecision; image-rendering:optimizeQuality; fill-rule:evenodd; clip-rule:evenodd"
viewBox="0 0 1236 349"
 xmlns:xlink="http://www.w3.org/1999/xlink">
 <defs>
  <style type="text/css">
   <![CDATA[
    .fil0 {fill:#09246A}
    .fil1 {fill:#FF6B6B}
   ]]>
  </style>
 </defs>
 <g id="Ebene_x0020_1">
  <metadata id="CorelCorpID_0Corel-Layer"/>
  <g id="_665291144">
   <path class="fil0" d="M408 185l0 152c0,8 24,5 39,5 15,0 29,0 44,0 7,-28 -2,-149 3,-165 10,-36 69,-39 68,18l0 133c0,9 -2,13 7,14 22,1 53,0 77,0 6,-27 -2,-147 3,-165 8,-32 46,-32 60,-13 7,9 8,15 8,31l0 133c0,9 -2,13 6,14 23,1 54,0 77,0 4,-17 2,-122 2,-147 0,-27 -7,-59 -24,-79l-14 -15c-4,-3 -4,-4 -9,-6 -40,-27 -96,-32 -136,-3 -22,17 -10,14 -29,1l-16 -10c-30,-15 -68,-13 -98,-1 -23,9 -49,33 -58,56 -6,14 -10,28 -10,47z"/>
   <path class="fil0" d="M1089 148c85,0 77,124 7,124 -10,0 -17,1 -25,-2 -13,-4 -26,-13 -33,-26 -12,-25 -11,-59 9,-78 10,-10 23,-18 42,-18zm-4 201c32,0 64,-6 90,-24 23,-15 35,-28 47,-53 5,-9 7,-15 9,-25 8,-32 7,-67 -8,-97 -21,-45 -69,-77 -124,-77 -39,0 -65,4 -97,25 -18,13 -39,37 -47,58 -6,16 -11,41 -11,56 0,16 6,42 13,56 13,26 18,32 38,49 2,2 7,6 9,7 7,5 16,9 24,13 11,5 40,12 57,12z"/>
   <path class="fil0" d="M179 212c0,-9 3,-20 5,-26 3,-7 7,-14 12,-20 5,-5 10,-9 18,-12 44,-18 86,10 86,48 0,15 1,24 -5,37 -5,11 -15,22 -26,27 -22,11 -60,7 -74,-13 -9,-11 -16,-25 -16,-41zm72 137l-15 0c-11,0 -22,-2 -35,-4 -9,-2 -18,-5 -26,-9 -8,-3 -26,-13 -32,-20 -4,-3 -6,-4 -10,-7 -11,-11 -21,-28 -27,-42 -7,-13 -12,-38 -12,-57 0,-23 7,-51 18,-69 2,-4 4,-6 6,-10 41,-60 133,-73 189,-45 31,15 54,37 68,71 11,26 14,59 7,87 -7,26 -22,55 -43,70 -30,23 -57,34 -88,35z"/>
   <path class="fil0" d="M834 80l0 249c0,7 -1,13 5,13l74 0c4,0 5,-2 5,-5l0 -254c0,-3 -1,-4 -5,-4 -12,0 -71,-2 -79,1z"/>
   <path class="fil1" d="M0 57c0,23 9,40 27,54 3,2 5,3 10,5 58,29 118,-49 69,-97 -12,-12 -27,-19 -43,-19l-3 0c-15,0 -29,6 -41,17 -9,9 -19,28 -19,40z"/>
  </g>
 </g>
</svg>
